<svg width="24" height="24" viewBox="0 0 24 24" fill="none" xmlns="http://www.w3.org/2000/svg">
<g clip-path="url(#clip0_481_285)">
<path d="M16.8704 2.93031V0.796875H3.42354C2.72715 0.797662 2.05951 1.07465 1.56708 1.56707C1.07466 2.05949 0.797665 2.72714 0.796875 3.42353V20.5765C0.797663 21.2729 1.07465 21.9405 1.56708 22.4329C2.0595 22.9254 2.72715 23.2023 3.42354 23.2031H20.5774C21.2737 23.2022 21.9412 22.9251 22.4334 22.4327C22.9256 21.9403 23.2025 21.2727 23.2031 20.5765V7.13062H21.0696C19.9562 7.12922 18.8887 6.68621 18.1015 5.89877C17.3142 5.11133 16.8715 4.04378 16.8704 2.93031ZM18.2905 10.1057L12.1206 16.2688C11.6597 16.7292 11.0349 16.9877 10.3834 16.9875C9.73193 16.9874 9.10719 16.7285 8.64653 16.2678L5.70895 13.3302C5.54069 13.162 5.40721 12.9622 5.31614 12.7424C5.22508 12.5225 5.17821 12.2869 5.17821 12.0489C5.17821 11.8109 5.22508 11.5753 5.31614 11.3555C5.40721 11.1356 5.54069 10.9358 5.70895 10.7676C6.04879 10.4278 6.50969 10.2368 6.99028 10.2368C7.47087 10.2368 7.93178 10.4278 8.27161 10.7676L9.81594 12.3119C9.9677 12.4637 10.1735 12.549 10.3881 12.549C10.6028 12.549 10.8086 12.4637 10.9604 12.3119L15.7292 7.54307C16.069 7.20333 16.5298 7.01247 17.0102 7.01247C17.4907 7.01247 17.9514 7.20333 18.2912 7.54307C18.4595 7.71135 18.5929 7.91114 18.684 8.13102C18.775 8.3509 18.8218 8.58656 18.8218 8.82455C18.8217 9.06253 18.7748 9.29817 18.6836 9.518C18.5924 9.73783 18.4588 9.93755 18.2905 10.1057Z" fill="#06BD84"/>
<path d="M21.0696 6.56814H22.921L17.4329 1.08002V2.93033C17.4338 3.89466 17.8172 4.81924 18.499 5.50123C19.1808 6.18321 20.1053 6.56691 21.0696 6.56814Z" fill="#06BD84"/>
</g>
<defs>
<clipPath id="clip0_481_285">
<rect width="24" height="24" fill="white"/>
</clipPath>
</defs>
</svg>
