<svg width="49" height="48" viewBox="0 0 49 48" fill="none" xmlns="http://www.w3.org/2000/svg">
<g clip-path="url(#clip0_481_393)">
<path d="M0.5 25.5938H9.03125V45.2812H0.5V25.5938Z" fill="#9E01FF"/>
<path d="M35.6562 22.6875H28.7188V15.75C28.7188 11.8734 25.565 8.71875 21.6875 8.71875H20.5344L18.7963 17.4084C17.6098 23.3468 11.8534 24.9435 11.8438 24.9497V45.6637L13.07 45.9619C18.6191 47.31 24.3284 48 30.0387 48H32.8512C35.1781 48 37.07 46.1016 37.07 43.7747C37.07 43.2262 36.9631 42.7013 36.7719 42.2203C38.5616 41.7319 39.8825 40.0931 39.8825 38.1497C39.8825 37.0706 39.4737 36.0844 38.8044 35.3372C39.4737 34.5909 39.8825 33.6047 39.8825 32.5247C39.8825 31.4456 39.4737 30.4594 38.8044 29.7122C39.4737 28.9659 39.8825 27.9797 39.8825 26.8997C39.8825 24.5737 37.9831 22.6875 35.6562 22.6875Z" fill="#9E01FF"/>
<path d="M42.875 0C41.2148 0 39.7633 0.704625 38.6562 2.04262C37.5492 0.704625 36.0977 0 34.4375 0C31.2833 0 28.8125 2.55188 28.8125 5.80969C28.8125 9.27431 31.6514 11.5783 35.5807 14.7671C37.7161 16.5 37.7653 16.5627 38.6562 17.2993C39.4177 16.6698 39.6523 16.4547 41.7318 14.7671C45.6611 11.5782 48.5 9.27422 48.5 5.80969C48.5 2.55188 46.0292 0 42.875 0Z" fill="#9E01FF"/>
</g>
<defs>
<clipPath id="clip0_481_393">
<rect width="48" height="48" fill="white" transform="translate(0.5)"/>
</clipPath>
</defs>
</svg>
