<svg width="20" height="20" viewBox="0 0 20 20" fill="none" xmlns="http://www.w3.org/2000/svg">
<path fill-rule="evenodd" clip-rule="evenodd" d="M18.3334 10.0001C18.3334 11.1501 17.4001 12.0834 16.2501 12.0834H12.0834V16.2501C12.0834 17.4001 11.1501 18.3334 10.0001 18.3334C8.85008 18.3334 7.91674 17.4001 7.91674 16.2501V12.0834H3.75009C2.60009 12.0834 1.66675 11.1501 1.66675 10.0001C1.66675 8.85009 2.60009 7.91675 3.75009 7.91675H7.91674V3.75008C7.91674 2.60008 8.85008 1.66675 10.0001 1.66675C11.1501 1.66675 12.0834 2.60008 12.0834 3.75008V7.91675H16.2501C17.4001 7.91675 18.3334 8.85009 18.3334 10.0001Z" fill="white"/>
</svg>
